<?xml version="1.0" encoding="UTF-8"?>
<svg xmlns="http://www.w3.org/2000/svg" onmouseup="{ if(window.parent.document.onmouseup) window.parent.document.onmouseup(arguments[0]);}" xml:space="preserve" enable-background="new 0 0 100 64.2" viewBox="0 0 100 64.2" height="64.2px" width="100px" y="0px" x="0px" version="1.1" xmlns:xlink="http://www.w3.org/1999/xlink">
<g id="Playbar">
	<linearGradient id="SVGID_1_" gradientUnits="userSpaceOnUse" x1="428.964" y1="63.4761" x2="428.964" y2="2.0471">
		<stop offset="0" style="stop-color:#000000"/>
		<stop offset="0.1738" style="stop-color:#1A1A1A"/>
		<stop offset="1" style="stop-color:#333333"/>
	</linearGradient>
	<rect x="-83.9" y="0.7" fill="url(#SVGID_1_)" stroke="#808080" stroke-miterlimit="10" width="1025.8" height="63.3"/>
	<g>
		<g>
			<line fill="none" stroke="#FFFFFF" stroke-width="0.75" stroke-miterlimit="10" x1="0.3" y1="7.2" x2="0.3" y2="56.5"/>
		</g>
		<g>
			<line fill="none" stroke="#CCCCCC" stroke-width="0.75" stroke-miterlimit="10" x1="99.7" y1="7.2" x2="99.7" y2="56.5"/>
		</g>
	</g>
	<path fill="#FFFFFF" d="M21.4,45.2V19.1c0-0.7,0.2-1.3,0.7-1.7c0.5-0.5,1-0.7,1.7-0.7h4.8c0.7,0,1.3,0.2,1.7,0.7   c0.5,0.5,0.7,1,0.7,1.7v11.1l21.2-13.1c0.8-0.5,1.5-0.6,2-0.3c0.6,0.3,0.9,1,0.9,2v11.2L76,17.2c0.8-0.5,1.5-0.6,2-0.3   c0.6,0.3,0.9,1,0.9,2v26.6c0,1-0.3,1.7-0.9,2c-0.6,0.3-1.3,0.2-2-0.3L55.2,34.3v11.2c0,1-0.3,1.7-0.9,2c-0.6,0.3-1.2,0.2-2-0.3   L31.1,34.1v11.1c0,0.7-0.2,1.3-0.7,1.7c-0.5,0.5-1,0.7-1.7,0.7h-4.8c-0.7,0-1.2-0.2-1.7-0.7C21.7,46.5,21.4,45.9,21.4,45.2z"/>
</g>
<g id="Information_-_on">
</g>
</svg>