<?xml version="1.0" encoding="UTF-8"?>
<svg xmlns="http://www.w3.org/2000/svg" onmouseup="{ if(window.parent.document.onmouseup) window.parent.document.onmouseup(arguments[0]);}" xml:space="preserve" enable-background="new 0 0 1024 170" viewBox="0 0 1024 170" height="170px" width="1024px" y="0px" x="0px" version="1.1" xmlns:xlink="http://www.w3.org/1999/xlink">
<g id="Playbar">
</g>
<g id="Information_-_on">
	<rect x="2" y="0" opacity="0.75" fill="#FFFFFF" width="1024.5" height="170"/>
	<g>
		<g>
			<circle fill="#FFFFFF" cx="439.9" cy="61.9" r="26.9"/>
			<path fill="#FED141" stroke="#FED141" stroke-width="0.4134" d="M439.9,36.3c-10.1,0-18.9,5.9-23,14.5c4,1,13.2,3.1,24.3,3.9     c-1.5-1.2-2.6-3-2.6-5.1c0-3.5,2.8-6.3,6.3-6.3c3.5,0,6.3,2.8,6.3,6.3c0,1.6-0.6,3.1-1.6,4.2c5.9-2,8.7-6.7,9.6-8.7     C454.5,39.8,447.6,36.3,439.9,36.3z"/>
			<path fill="#D86018" stroke="#D86018" stroke-width="0.3733" d="M414.3,61.9c0,11.4,7.5,21.1,17.9,24.4c1.8-3.9,3.3-8.5,3.3-12.3     c0-1.7-0.3-3.3-1.1-4.5c-2.6-4.2-11.4-10.6-18.9-15.3C414.7,56.6,414.3,59.2,414.3,61.9z"/>
			<path d="M439.9,33.4c-15.7,0-28.4,12.7-28.4,28.4s12.7,28.4,28.4,28.4c15.7,0,28.4-12.7,28.4-28.4S455.6,33.4,439.9,33.4z      M460.3,77.2c-1-2-2.5-5.1-3.4-9c-0.1-0.6-0.2-1.2-0.2-2c0-4.8,2.5-12.8,4.6-18.3c2.6,4,4.1,8.8,4.1,13.9     C465.5,67.6,463.6,72.9,460.3,77.2z M439.9,36.3c7.7,0,14.7,3.5,19.4,8.9c-0.9,1.9-3.7,6.6-9.6,8.7c1-1.1,1.6-2.6,1.6-4.2     c0-3.5-2.8-6.3-6.3-6.3c-3.5,0-6.3,2.8-6.3,6.3c0,2.1,1,3.9,2.6,5.1c-11.2-0.8-20.4-2.9-24.3-3.9C421,42.2,429.8,36.3,439.9,36.3     z M454.2,68.8c0.5,2.2,1.2,4.2,1.9,5.9c-4-2.9-8.1-5-10.2-3.4c-1.6,1.2-5.2,5.3-8.5,9.2c1.2-4.3,1.7-9.1-0.5-12.7     c-2.5-4-9.4-9.3-14.8-13c5,1,12,2.2,19.8,2.7c6.7,0.4,11.4-1.7,14.6-4.4c-1.3,4.3-2.6,9.2-2.6,13C453.9,67.2,454,68.1,454.2,68.8     z M441.3,49.6c0-2,1.6-3.6,3.6-3.6c2,0,3.6,1.6,3.6,3.6c0,2-1.6,3.6-3.6,3.6C443,53.3,441.3,51.7,441.3,49.6z M414.4,61.9     c0-2.7,0.4-5.3,1.2-7.8c7.5,4.7,16.3,11.1,18.9,15.3c0.7,1.2,1.1,2.8,1.1,4.5c0,3.8-1.5,8.4-3.3,12.3     C421.9,83,414.4,73.3,414.4,61.9z M435.8,87.1c4.7-5.8,10.1-12.2,11.8-13.4c1-0.4,5.3,2,10.4,6.3c-4.6,4.6-11,7.5-18,7.5     C438.5,87.4,437.1,87.3,435.8,87.1z"/>
		</g>
		<g>
			<path d="M481.4,54.3l3.3,1c-0.2,0.9-0.6,1.7-1,2.3c-0.5,0.6-1.1,1.1-1.8,1.4c-0.7,0.3-1.6,0.5-2.7,0.5c-1.3,0-2.4-0.2-3.3-0.6     c-0.8-0.4-1.6-1.1-2.2-2c-0.6-1-0.9-2.2-0.9-3.7c0-2,0.5-3.6,1.6-4.7c1.1-1.1,2.6-1.6,4.6-1.6c1.5,0,2.7,0.3,3.6,0.9     c0.9,0.6,1.5,1.6,2,2.9l-3.3,0.7c-0.1-0.4-0.2-0.6-0.4-0.8c-0.2-0.3-0.5-0.5-0.8-0.7c-0.3-0.2-0.6-0.2-1-0.2c-0.9,0-1.5,0.3-2,1     c-0.3,0.5-0.5,1.3-0.5,2.4c0,1.4,0.2,2.3,0.6,2.8c0.4,0.5,1,0.8,1.7,0.8c0.7,0,1.3-0.2,1.6-0.6C481,55.7,481.2,55.1,481.4,54.3z"/>
			<path d="M486.1,53.2c0-2,0.6-3.5,1.7-4.7c1.1-1.1,2.7-1.7,4.6-1.7c2,0,3.6,0.5,4.7,1.6c1.1,1.1,1.6,2.6,1.6,4.6     c0,1.4-0.2,2.6-0.7,3.5c-0.5,0.9-1.2,1.6-2.1,2.1c-0.9,0.5-2,0.8-3.4,0.8c-1.4,0-2.5-0.2-3.4-0.7c-0.9-0.4-1.6-1.1-2.2-2.1     C486.4,55.8,486.1,54.7,486.1,53.2z M489.8,53.2c0,1.2,0.2,2.1,0.7,2.7c0.5,0.5,1.1,0.8,1.9,0.8c0.8,0,1.4-0.3,1.9-0.8     c0.4-0.5,0.7-1.5,0.7-2.8c0-1.1-0.2-2-0.7-2.5c-0.5-0.5-1.1-0.8-1.9-0.8c-0.8,0-1.4,0.3-1.8,0.8C490.1,51.1,489.8,52,489.8,53.2z     "/>
			<path d="M500.8,47.1h3.5l4.6,6.8v-6.8h3.6v12.2h-3.6l-4.6-6.7v6.7h-3.5V47.1z"/>
			<path d="M515,47.1h3.5l4.6,6.8v-6.8h3.6v12.2h-3.6l-4.6-6.7v6.7H515V47.1z"/>
			<path d="M529.1,47.1h10.1v2.6h-6.3v1.9h5.9v2.5h-5.9v2.4h6.5v2.8h-10.3V47.1z"/>
			<path d="M549.6,54.3l3.3,1c-0.2,0.9-0.6,1.7-1,2.3c-0.5,0.6-1.1,1.1-1.8,1.4c-0.7,0.3-1.6,0.5-2.7,0.5c-1.3,0-2.4-0.2-3.3-0.6     c-0.8-0.4-1.6-1.1-2.2-2c-0.6-1-0.9-2.2-0.9-3.7c0-2,0.5-3.6,1.6-4.7c1.1-1.1,2.6-1.6,4.6-1.6c1.5,0,2.7,0.3,3.6,0.9     c0.9,0.6,1.5,1.6,2,2.9l-3.3,0.7c-0.1-0.4-0.2-0.6-0.4-0.8c-0.2-0.3-0.5-0.5-0.8-0.7c-0.3-0.2-0.6-0.2-1-0.2c-0.9,0-1.5,0.3-2,1     c-0.3,0.5-0.5,1.3-0.5,2.4c0,1.4,0.2,2.3,0.6,2.8c0.4,0.5,1,0.8,1.7,0.8c0.7,0,1.3-0.2,1.6-0.6C549.1,55.7,549.4,55.1,549.6,54.3     z"/>
			<path d="M553.9,47.1h11.5v3h-3.8v9.2h-3.8v-9.2h-3.8V47.1z"/>
			<path d="M567.2,47.1h3.8v12.2h-3.8V47.1z"/>
			<path d="M573.2,53.2c0-2,0.6-3.5,1.7-4.7c1.1-1.1,2.7-1.7,4.6-1.7c2,0,3.6,0.5,4.7,1.6c1.1,1.1,1.6,2.6,1.6,4.6     c0,1.4-0.2,2.6-0.7,3.5c-0.5,0.9-1.2,1.6-2.1,2.1c-0.9,0.5-2,0.8-3.4,0.8c-1.4,0-2.5-0.2-3.4-0.7c-0.9-0.4-1.6-1.1-2.2-2.1     C573.5,55.8,573.2,54.7,573.2,53.2z M577,53.2c0,1.2,0.2,2.1,0.7,2.7c0.5,0.5,1.1,0.8,1.9,0.8c0.8,0,1.4-0.3,1.9-0.8     s0.7-1.5,0.7-2.8c0-1.1-0.2-2-0.7-2.5c-0.5-0.5-1.1-0.8-1.9-0.8c-0.8,0-1.4,0.3-1.8,0.8S577,52,577,53.2z"/>
			<path d="M587.9,47.1h3.5l4.6,6.8v-6.8h3.6v12.2H596l-4.6-6.7v6.7h-3.5V47.1z"/>
			<path d="M601.4,55.3l3.6-0.2c0.1,0.6,0.2,1,0.5,1.3c0.4,0.5,0.9,0.7,1.7,0.7c0.5,0,1-0.1,1.2-0.4c0.3-0.3,0.4-0.5,0.4-0.9     c0-0.3-0.1-0.6-0.4-0.8c-0.3-0.2-0.9-0.5-1.9-0.7c-1.7-0.4-2.8-0.9-3.5-1.5c-0.7-0.6-1.1-1.4-1.1-2.4c0-0.6,0.2-1.2,0.5-1.8     c0.4-0.6,0.9-1,1.6-1.3c0.7-0.3,1.7-0.5,3-0.5c1.6,0,2.7,0.3,3.6,0.9c0.8,0.6,1.3,1.5,1.5,2.8l-3.6,0.2c-0.1-0.5-0.3-0.9-0.6-1.2     c-0.3-0.2-0.7-0.4-1.3-0.4c-0.4,0-0.8,0.1-1,0.3c-0.2,0.2-0.3,0.4-0.3,0.7c0,0.2,0.1,0.4,0.3,0.5c0.2,0.2,0.6,0.3,1.3,0.4     c1.6,0.4,2.8,0.7,3.5,1.1c0.7,0.4,1.2,0.8,1.6,1.4c0.3,0.5,0.5,1.1,0.5,1.8c0,0.8-0.2,1.5-0.6,2.2c-0.4,0.7-1,1.2-1.8,1.5     c-0.8,0.3-1.8,0.5-2.9,0.5c-2.1,0-3.5-0.4-4.3-1.2C602,57.5,601.5,56.5,601.4,55.3z"/>
		</g>
		<g>
			<path d="M472.9,76.7V64.5h8.8v1.4h-7.2v3.7h6.8v1.4h-6.8v4.2h7.5v1.4H472.9z"/>
			<path d="M484.3,76.7V64.5h4.2c0.9,0,1.7,0.1,2.2,0.2c0.7,0.2,1.3,0.5,1.8,0.9c0.6,0.5,1.1,1.2,1.4,2.1c0.3,0.8,0.5,1.8,0.5,2.9     c0,0.9-0.1,1.7-0.3,2.5c-0.2,0.7-0.5,1.3-0.8,1.8c-0.3,0.5-0.7,0.8-1.1,1.1c-0.4,0.3-0.9,0.5-1.5,0.6c-0.6,0.1-1.2,0.2-2,0.2     H484.3z M485.9,75.3h2.6c0.8,0,1.4-0.1,1.9-0.2c0.5-0.1,0.8-0.4,1.1-0.6c0.4-0.4,0.7-0.9,0.9-1.5c0.2-0.6,0.3-1.4,0.3-2.4     c0-1.3-0.2-2.3-0.6-2.9s-0.9-1.1-1.5-1.4c-0.4-0.2-1.1-0.2-2.1-0.2h-2.6V75.3z"/>
			<path d="M504.6,64.5h1.6v7.1c0,1.2-0.1,2.2-0.4,2.9c-0.3,0.7-0.8,1.3-1.5,1.8c-0.7,0.5-1.7,0.7-2.9,0.7c-1.1,0-2.1-0.2-2.8-0.6     c-0.7-0.4-1.2-1-1.6-1.7c-0.3-0.7-0.5-1.8-0.5-3.1v-7.1h1.6v7c0,1.1,0.1,1.8,0.3,2.3c0.2,0.5,0.5,0.9,1,1.2     c0.5,0.3,1.1,0.4,1.8,0.4c1.2,0,2-0.3,2.5-0.8c0.5-0.5,0.8-1.6,0.8-3.1V64.5z"/>
			<path d="M517.6,72.4l1.6,0.4c-0.3,1.3-0.9,2.3-1.8,3c-0.9,0.7-2,1-3.2,1c-1.3,0-2.4-0.3-3.2-0.8c-0.8-0.5-1.5-1.3-1.9-2.3     c-0.4-1-0.6-2.1-0.6-3.3c0-1.3,0.2-2.4,0.7-3.3c0.5-0.9,1.2-1.7,2.1-2.2c0.9-0.5,1.9-0.7,3-0.7c1.2,0,2.2,0.3,3.1,0.9     c0.8,0.6,1.4,1.5,1.7,2.6l-1.6,0.4c-0.3-0.9-0.7-1.5-1.2-1.9c-0.5-0.4-1.2-0.6-2-0.6c-0.9,0-1.7,0.2-2.4,0.7     c-0.6,0.4-1.1,1.1-1.3,1.8c-0.3,0.8-0.4,1.5-0.4,2.3c0,1,0.2,1.9,0.5,2.7c0.3,0.8,0.8,1.4,1.4,1.7c0.6,0.4,1.3,0.6,2.1,0.6     c0.9,0,1.7-0.3,2.3-0.8C516.9,74.2,517.4,73.4,517.6,72.4z"/>
			<path d="M519.9,76.7l4.7-12.2h1.7l5,12.2h-1.8L528,73h-5.1l-1.3,3.7H519.9z M523.4,71.7h4.1l-1.3-3.4c-0.4-1-0.7-1.9-0.9-2.5     c-0.2,0.8-0.4,1.6-0.7,2.3L523.4,71.7z"/>
			<path d="M534.4,76.7V65.9h-4v-1.4h9.7v1.4h-4v10.8H534.4z"/>
			<path d="M542,76.7V64.5h1.6v12.2H542z"/>
			<path d="M546,70.7c0-2,0.5-3.6,1.6-4.8c1.1-1.1,2.5-1.7,4.2-1.7c1.1,0,2.1,0.3,3,0.8c0.9,0.5,1.6,1.3,2.1,2.3     c0.5,1,0.7,2.1,0.7,3.3c0,1.2-0.2,2.3-0.7,3.3c-0.5,1-1.2,1.7-2.1,2.2c-0.9,0.5-1.9,0.8-3,0.8c-1.1,0-2.2-0.3-3.1-0.8     c-0.9-0.6-1.6-1.3-2.1-2.3C546.2,72.8,546,71.8,546,70.7z M547.6,70.8c0,1.5,0.4,2.6,1.2,3.5c0.8,0.8,1.8,1.3,3,1.3     c1.2,0,2.2-0.4,3-1.3c0.8-0.9,1.2-2.1,1.2-3.6c0-1-0.2-1.9-0.5-2.6c-0.3-0.7-0.8-1.3-1.5-1.7c-0.6-0.4-1.4-0.6-2.2-0.6     c-1.1,0-2.1,0.4-3,1.2C548,67.6,547.6,68.9,547.6,70.8z"/>
			<path d="M559.7,76.7V64.5h1.7l6.4,9.6v-9.6h1.5v12.2h-1.7l-6.4-9.6v9.6H559.7z"/>
			<g>
				<path d="M574,64.5c0.4,0,0.8,0.1,1.2,0.3c0.4,0.2,0.7,0.5,0.9,0.9c0.2,0.4,0.3,0.8,0.3,1.2c0,0.4-0.1,0.8-0.3,1.2      c-0.2,0.4-0.5,0.7-0.9,0.9c-0.4,0.2-0.8,0.3-1.2,0.3c-0.4,0-0.8-0.1-1.2-0.3c-0.4-0.2-0.7-0.5-0.9-0.9c-0.2-0.4-0.3-0.8-0.3-1.2      c0-0.4,0.1-0.8,0.3-1.2c0.2-0.4,0.5-0.7,0.9-0.9C573.2,64.6,573.6,64.5,574,64.5z M574,64.9c-0.3,0-0.7,0.1-1,0.3      c-0.3,0.2-0.6,0.4-0.7,0.7c-0.2,0.3-0.3,0.6-0.3,1c0,0.3,0.1,0.7,0.3,1c0.2,0.3,0.4,0.6,0.7,0.7c0.3,0.2,0.6,0.3,1,0.3      c0.3,0,0.7-0.1,1-0.3c0.3-0.2,0.6-0.4,0.7-0.7c0.2-0.3,0.3-0.6,0.3-1c0-0.3-0.1-0.7-0.3-1c-0.2-0.3-0.4-0.6-0.7-0.7      C574.7,65,574.3,64.9,574,64.9z M573,68.1v-2.5h0.9c0.3,0,0.5,0,0.6,0.1c0.1,0,0.2,0.1,0.3,0.2c0.1,0.1,0.1,0.2,0.1,0.4      c0,0.2-0.1,0.3-0.2,0.5c-0.1,0.1-0.3,0.2-0.5,0.2c0.1,0,0.2,0.1,0.2,0.1c0.1,0.1,0.2,0.3,0.4,0.5l0.3,0.5h-0.5l-0.2-0.4      c-0.2-0.3-0.3-0.5-0.4-0.6c-0.1-0.1-0.2-0.1-0.3-0.1h-0.2v1.1H573z M573.4,66.7h0.5c0.2,0,0.4,0,0.5-0.1      c0.1-0.1,0.1-0.2,0.1-0.3c0-0.1,0-0.1-0.1-0.2c0-0.1-0.1-0.1-0.2-0.1c-0.1,0-0.2,0-0.4,0h-0.5V66.7z"/>
			</g>
		</g>
	</g>
	<path d="M234.2,116.6c0-4.9,3.6-7.9,7.8-7.9c4.2,0,7.8,3,7.8,7.9s-3.6,8-7.8,8C237.8,124.6,234.2,121.5,234.2,116.6z M248.4,116.6   c0-4.1-2.9-6.7-6.4-6.7c-3.6,0-6.5,2.6-6.5,6.7c0,4.1,2.9,6.8,6.5,6.8C245.6,123.4,248.4,120.7,248.4,116.6z M237.7,116.6   c0-2.8,2.2-4.6,4.5-4.6c1.4,0,2.3,0.6,3.1,1.4l-1.1,1.2c-0.6-0.6-1.1-0.9-1.9-0.9c-1.6,0-2.6,1.2-2.6,2.9c0,1.8,1,3,2.5,3   c0.9,0,1.5-0.4,2.2-0.9l0.9,1.3c-0.9,0.7-1.9,1.3-3.2,1.3C239.7,121.4,237.7,119.6,237.7,116.6z"/>
	<path d="M251.9,122.8c4.2-4.1,6.9-6.8,6.9-9.1c0-1.6-0.9-2.6-2.5-2.6c-1.2,0-2.2,0.8-3,1.7l-1.5-1.5c1.4-1.5,2.8-2.4,4.9-2.4   c2.9,0,4.8,1.8,4.8,4.7c0,2.7-2.5,5.5-5.5,8.7c0.8-0.1,1.8-0.2,2.5-0.2h3.7v2.4h-10.3V122.8z"/>
	<path d="M264.2,116.7c0-5.2,2-7.8,5.2-7.8s5.2,2.7,5.2,7.8c0,5.2-2,8-5.2,8S264.2,121.8,264.2,116.7z M272,116.7   c0-4.3-1.1-5.7-2.5-5.7c-1.5,0-2.5,1.4-2.5,5.7s1.1,5.8,2.5,5.8C270.9,122.5,272,121,272,116.7z"/>
	<path d="M277.4,122.1h3.4v-10H278v-1.7c1.5-0.3,2.6-0.7,3.5-1.2h2.1v13h3v2.3h-9.2V122.1z"/>
	<path d="M306.2,116.6c0-5.1,3.2-8.2,7.2-8.2c2,0,3.6,0.9,4.5,2l-1.5,1.8c-0.8-0.8-1.8-1.4-3-1.4c-2.6,0-4.4,2.2-4.4,5.7   c0,3.6,1.7,5.7,4.3,5.7c1.4,0,2.5-0.6,3.4-1.6l1.5,1.8c-1.3,1.5-2.9,2.3-4.9,2.3C309.3,124.7,306.2,121.8,306.2,116.6z"/>
	<path d="M319.8,118.5c0-3.9,2.7-6.2,5.6-6.2c3,0,5.6,2.3,5.6,6.2c0,3.9-2.7,6.2-5.6,6.2C322.5,124.7,319.8,122.4,319.8,118.5z    M328.2,118.5c0-2.4-1.1-3.9-2.8-3.9s-2.8,1.6-2.8,3.9c0,2.4,1,3.9,2.8,3.9S328.2,120.9,328.2,118.5z"/>
	<path d="M333.8,112.6h2.3l0.2,1.6h0.1c1.1-1,2.3-1.9,3.9-1.9c2.5,0,3.6,1.7,3.6,4.7v7.4h-2.8v-7c0-1.9-0.6-2.7-1.8-2.7   c-1,0-1.7,0.5-2.7,1.5v8.2h-2.8V112.6z"/>
	<path d="M347.2,112.6h2.3l0.2,1.6h0.1c1.1-1,2.3-1.9,3.9-1.9c2.5,0,3.6,1.7,3.6,4.7v7.4h-2.8v-7c0-1.9-0.6-2.7-1.8-2.7   c-1,0-1.7,0.5-2.7,1.5v8.2h-2.8V112.6z"/>
	<path d="M359.9,118.5c0-3.8,2.7-6.2,5.4-6.2c3.2,0,4.9,2.3,4.9,5.6c0,0.5,0,1.1-0.1,1.3h-7.5c0.2,2.1,1.6,3.3,3.5,3.3   c1,0,1.9-0.3,2.7-0.9l0.9,1.7c-1.1,0.7-2.5,1.3-4,1.3C362.4,124.7,359.9,122.4,359.9,118.5z M367.8,117.4c0-1.8-0.8-2.9-2.4-2.9   c-1.4,0-2.6,1-2.8,2.9H367.8z"/>
	<path d="M372,118.5c0-3.9,2.8-6.2,5.9-6.2c1.5,0,2.6,0.6,3.5,1.3l-1.3,1.8c-0.6-0.6-1.2-0.9-2-0.9c-1.9,0-3.2,1.6-3.2,3.9   c0,2.4,1.3,3.9,3.1,3.9c0.9,0,1.8-0.5,2.4-1l1.1,1.8c-1.1,1-2.5,1.4-3.8,1.4C374.5,124.7,372,122.4,372,118.5z"/>
	<path d="M384.1,120.4v-5.6h-1.7v-2.1l1.8-0.1l0.3-3.2h2.3v3.2h3v2.2h-3v5.6c0,1.4,0.5,2.1,1.7,2.1c0.4,0,0.9-0.1,1.2-0.3l0.5,2   c-0.6,0.2-1.5,0.4-2.4,0.4C385.1,124.7,384.1,122.9,384.1,120.4z"/>
	<path d="M392,109c0-0.9,0.7-1.6,1.7-1.6c1,0,1.7,0.6,1.7,1.6c0,0.9-0.7,1.6-1.7,1.6C392.7,110.5,392,109.9,392,109z M392.3,112.6   h2.8v11.8h-2.8V112.6z"/>
	<path d="M397.8,118.5c0-3.9,2.7-6.2,5.6-6.2c3,0,5.6,2.3,5.6,6.2c0,3.9-2.7,6.2-5.6,6.2C400.5,124.7,397.8,122.4,397.8,118.5z    M406.2,118.5c0-2.4-1.1-3.9-2.8-3.9s-2.8,1.6-2.8,3.9c0,2.4,1,3.9,2.8,3.9S406.2,120.9,406.2,118.5z"/>
	<path d="M411.8,112.6h2.3l0.2,1.6h0.1c1.1-1,2.3-1.9,3.9-1.9c2.5,0,3.6,1.7,3.6,4.7v7.4h-2.8v-7c0-1.9-0.6-2.7-1.8-2.7   c-1,0-1.7,0.5-2.7,1.5v8.2h-2.8V112.6z"/>
	<path d="M424,123l1.3-1.8c1.1,0.8,2.1,1.3,3.3,1.3c1.3,0,1.9-0.6,1.9-1.4c0-1-1.3-1.4-2.5-1.9c-1.6-0.6-3.3-1.5-3.3-3.4   c0-2.1,1.7-3.5,4.3-3.5c1.6,0,3,0.7,3.9,1.4l-1.3,1.7c-0.8-0.6-1.7-1-2.6-1c-1.2,0-1.7,0.6-1.7,1.3c0,0.9,1.2,1.3,2.4,1.8   c1.6,0.6,3.4,1.4,3.4,3.6c0,2-1.6,3.6-4.6,3.6C426.9,124.7,425.2,124,424,123z"/>
	<path d="M440.6,108.7h9.5v2.4h-6.7v4h5.6v2.4h-5.6v4.6h6.9v2.4h-9.7V108.7z"/>
	<path d="M452.3,118.5c0-3.8,2.4-6.2,5-6.2c1.3,0,2.2,0.5,3.1,1.3l-0.1-1.9v-4.3h2.8v16.9h-2.3l-0.2-1.3h-0.1   c-0.9,0.9-2.1,1.6-3.3,1.6C454.2,124.7,452.3,122.4,452.3,118.5z M460.3,121.1v-5.5c-0.8-0.7-1.6-1-2.4-1c-1.5,0-2.7,1.4-2.7,3.9   c0,2.5,1,3.9,2.7,3.9C458.7,122.4,459.5,122,460.3,121.1z"/>
	<path d="M466.4,120v-7.4h2.8v7c0,1.9,0.6,2.7,1.8,2.7c1,0,1.7-0.5,2.6-1.6v-8.1h2.8v11.8h-2.3l-0.2-1.7h-0.1c-1,1.2-2.2,2-3.8,2   C467.6,124.7,466.4,123,466.4,120z"/>
	<path d="M479.1,118.5c0-3.9,2.8-6.2,5.9-6.2c1.5,0,2.6,0.6,3.5,1.3l-1.3,1.8c-0.6-0.6-1.2-0.9-2-0.9c-1.9,0-3.2,1.6-3.2,3.9   c0,2.4,1.3,3.9,3.1,3.9c0.9,0,1.8-0.5,2.4-1l1.1,1.8c-1.1,1-2.5,1.4-3.8,1.4C481.6,124.7,479.1,122.4,479.1,118.5z"/>
	<path d="M490,118.5c0-3.8,2.5-6.2,5.1-6.2c1.2,0,2.2,0.5,3.2,1.4h0.1l0.2-1.2h2.2v11.8h-2.3l-0.2-1.3h-0.1   c-0.9,0.9-2.1,1.6-3.3,1.6C491.9,124.7,490,122.4,490,118.5z M498,121.1v-5.5c-0.8-0.7-1.6-1-2.4-1c-1.5,0-2.7,1.4-2.7,3.9   c0,2.5,1,3.9,2.7,3.9C496.5,122.4,497.2,122,498,121.1z"/>
	<path d="M504.3,120.4v-5.6h-1.7v-2.1l1.8-0.1l0.3-3.2h2.3v3.2h3v2.2h-3v5.6c0,1.4,0.5,2.1,1.7,2.1c0.4,0,0.9-0.1,1.2-0.3l0.5,2   c-0.6,0.2-1.5,0.4-2.4,0.4C505.3,124.7,504.3,122.9,504.3,120.4z"/>
	<path d="M512.3,109c0-0.9,0.7-1.6,1.7-1.6c1,0,1.7,0.6,1.7,1.6c0,0.9-0.7,1.6-1.7,1.6C513,110.5,512.3,109.9,512.3,109z    M512.6,112.6h2.8v11.8h-2.8V112.6z"/>
	<path d="M518.1,118.5c0-3.9,2.7-6.2,5.6-6.2c3,0,5.6,2.3,5.6,6.2c0,3.9-2.7,6.2-5.6,6.2C520.8,124.7,518.1,122.4,518.1,118.5z    M526.5,118.5c0-2.4-1.1-3.9-2.8-3.9s-2.8,1.6-2.8,3.9c0,2.4,1,3.9,2.8,3.9S526.5,120.9,526.5,118.5z"/>
	<path d="M532,112.6h2.3l0.2,1.6h0.1c1.1-1,2.3-1.9,3.9-1.9c2.5,0,3.6,1.7,3.6,4.7v7.4h-2.8v-7c0-1.9-0.6-2.7-1.8-2.7   c-1,0-1.7,0.5-2.7,1.5v8.2H532V112.6z"/>
	<path d="M550.5,108.7h2.8V122h6.5v2.4h-9.3V108.7z"/>
	<path d="M562.6,108.7h2.8V122h6.5v2.4h-9.3V108.7z"/>
	<path d="M573.1,116.6c0-5.1,3.2-8.2,7.2-8.2c2,0,3.6,0.9,4.5,2l-1.5,1.8c-0.8-0.8-1.8-1.4-3-1.4c-2.6,0-4.4,2.2-4.4,5.7   c0,3.6,1.7,5.7,4.3,5.7c1.4,0,2.5-0.6,3.4-1.6l1.5,1.8c-1.3,1.5-2.9,2.3-4.9,2.3C576.2,124.7,573.1,121.8,573.1,116.6z"/>
	<path d="M587.2,122.8c0-1.1,0.8-1.9,1.8-1.9c1,0,1.8,0.8,1.8,1.9s-0.8,1.9-1.8,1.9C588,124.7,587.2,123.9,587.2,122.8z"/>
	<path d="M606.4,120.1h-5.3l-1.2,4.2h-2.8l5.1-15.7h3.3l5.1,15.7h-2.9L606.4,120.1z M605.8,117.9l-0.6-1.9c-0.5-1.7-1-3.5-1.4-5.2   h-0.1c-0.4,1.8-0.9,3.5-1.4,5.2l-0.6,1.9H605.8z"/>
	<path d="M612.2,121.4v-13.9h2.8v14.1c0,0.7,0.3,0.9,0.6,0.9c0.1,0,0.2,0,0.4,0l0.4,2.1c-0.3,0.1-0.8,0.2-1.5,0.2   C613,124.7,612.2,123.4,612.2,121.4z"/>
	<path d="M618.8,121.4v-13.9h2.8v14.1c0,0.7,0.3,0.9,0.6,0.9c0.1,0,0.2,0,0.4,0l0.4,2.1c-0.3,0.1-0.8,0.2-1.5,0.2   C619.5,124.7,618.8,123.4,618.8,121.4z"/>
	<path d="M630.1,112.6h2.3l0.2,2.1h0.1c0.8-1.5,2.1-2.4,3.3-2.4c0.6,0,1,0.1,1.3,0.2l-0.5,2.4c-0.4-0.1-0.7-0.2-1.2-0.2   c-0.9,0-2.1,0.6-2.8,2.4v7.2h-2.8V112.6z"/>
	<path d="M638.7,109c0-0.9,0.7-1.6,1.7-1.6s1.7,0.6,1.7,1.6c0,0.9-0.7,1.6-1.7,1.6S638.7,109.9,638.7,109z M639,112.6h2.8v11.8H639   V112.6z"/>
	<path d="M645.5,128l1-1.9c1.1,0.7,2.3,1,3.4,1c1.9,0,2.8-1,2.9-2.5l0.1-1.8c-0.8,0.8-2,1.4-3.2,1.4c-2.9,0-4.8-2.3-4.8-5.9   c0-3.6,2.5-6,5-6c1.2,0,2.2,0.4,3.1,1.4h0.1l0.2-1.1h2.3v12c0,3-2,4.7-5.6,4.7C648.4,129.3,646.8,128.8,645.5,128z M652.6,120.6v-5   c-0.8-0.7-1.6-1-2.4-1c-1.5,0-2.8,1.4-2.8,3.7c0,2.3,1,3.6,2.7,3.6C651.1,121.9,651.8,121.5,652.6,120.6z"/>
	<path d="M659,107.4h2.8v4.4l-0.1,2.3c1-0.9,2.2-1.8,3.8-1.8c2.5,0,3.6,1.7,3.6,4.7v7.4h-2.8v-7c0-1.9-0.6-2.7-1.8-2.7   c-1,0-1.7,0.5-2.7,1.5v8.2H659V107.4z"/>
	<path d="M672.8,120.4v-5.6h-1.7v-2.1l1.8-0.1l0.3-3.2h2.3v3.2h3v2.2h-3v5.6c0,1.4,0.5,2.1,1.7,2.1c0.4,0,0.9-0.1,1.2-0.3l0.5,2   c-0.6,0.2-1.5,0.4-2.4,0.4C673.8,124.7,672.8,122.9,672.8,120.4z"/>
	<path d="M679.6,123l1.3-1.8c1.1,0.8,2.1,1.3,3.3,1.3c1.3,0,1.9-0.6,1.9-1.4c0-1-1.3-1.4-2.5-1.9c-1.6-0.6-3.3-1.5-3.3-3.4   c0-2.1,1.7-3.5,4.3-3.5c1.6,0,3,0.7,3.9,1.4l-1.3,1.7c-0.8-0.6-1.7-1-2.6-1c-1.2,0-1.7,0.6-1.7,1.3c0,0.9,1.2,1.3,2.4,1.8   c1.6,0.6,3.4,1.4,3.4,3.6c0,2-1.6,3.6-4.6,3.6C682.5,124.7,680.8,124,679.6,123z"/>
	<path d="M696,112.6h2.3l0.2,2.1h0.1c0.8-1.5,2.1-2.4,3.3-2.4c0.6,0,1,0.1,1.3,0.2l-0.5,2.4c-0.4-0.1-0.7-0.2-1.2-0.2   c-0.9,0-2.1,0.6-2.8,2.4v7.2H696V112.6z"/>
	<path d="M703.9,118.5c0-3.8,2.7-6.2,5.4-6.2c3.2,0,4.9,2.3,4.9,5.6c0,0.5,0,1.1-0.1,1.3h-7.5c0.2,2.1,1.6,3.3,3.5,3.3   c1,0,1.9-0.3,2.7-0.9l0.9,1.7c-1.1,0.7-2.5,1.3-4,1.3C706.4,124.7,703.9,122.4,703.9,118.5z M711.8,117.4c0-1.8-0.8-2.9-2.4-2.9   c-1.4,0-2.6,1-2.8,2.9H711.8z"/>
	<path d="M715.7,123l1.3-1.8c1.1,0.8,2.1,1.3,3.3,1.3c1.3,0,1.9-0.6,1.9-1.4c0-1-1.3-1.4-2.5-1.9c-1.6-0.6-3.3-1.5-3.3-3.4   c0-2.1,1.7-3.5,4.3-3.5c1.6,0,3,0.7,3.9,1.4l-1.3,1.7c-0.8-0.6-1.7-1-2.6-1c-1.2,0-1.7,0.6-1.7,1.3c0,0.9,1.2,1.3,2.4,1.8   c1.6,0.6,3.4,1.4,3.4,3.6c0,2-1.6,3.6-4.6,3.6C718.5,124.7,716.8,124,715.7,123z"/>
	<path d="M726.4,118.5c0-3.8,2.7-6.2,5.4-6.2c3.2,0,4.9,2.3,4.9,5.6c0,0.5,0,1.1-0.1,1.3h-7.5c0.2,2.1,1.6,3.3,3.5,3.3   c1,0,1.9-0.3,2.7-0.9l0.9,1.7c-1.1,0.7-2.5,1.3-4,1.3C729,124.7,726.4,122.4,726.4,118.5z M734.3,117.4c0-1.8-0.8-2.9-2.4-2.9   c-1.4,0-2.6,1-2.8,2.9H734.3z"/>
	<path d="M739.3,112.6h2.3l0.2,2.1h0.1c0.8-1.5,2.1-2.4,3.3-2.4c0.6,0,1,0.1,1.3,0.2l-0.5,2.4c-0.4-0.1-0.7-0.2-1.2-0.2   c-0.9,0-2.1,0.6-2.8,2.4v7.2h-2.8V112.6z"/>
	<path d="M747.2,112.6h2.8l1.9,6.1c0.3,1.2,0.7,2.4,1,3.6h0.1c0.3-1.2,0.7-2.4,1-3.6l1.9-6.1h2.7l-4,11.8h-3.2L747.2,112.6z"/>
	<path d="M759.7,118.5c0-3.8,2.7-6.2,5.4-6.2c3.2,0,4.9,2.3,4.9,5.6c0,0.5,0,1.1-0.1,1.3h-7.5c0.2,2.1,1.6,3.3,3.5,3.3   c1,0,1.9-0.3,2.7-0.9l0.9,1.7c-1.1,0.7-2.5,1.3-4,1.3C762.2,124.7,759.7,122.4,759.7,118.5z M767.5,117.4c0-1.8-0.8-2.9-2.4-2.9   c-1.4,0-2.6,1-2.8,2.9H767.5z"/>
	<path d="M771.9,118.5c0-3.8,2.4-6.2,5-6.2c1.3,0,2.2,0.5,3.1,1.3l-0.1-1.9v-4.3h2.8v16.9h-2.3l-0.2-1.3h-0.1   c-0.9,0.9-2.1,1.6-3.3,1.6C773.8,124.7,771.9,122.4,771.9,118.5z M779.9,121.1v-5.5c-0.8-0.7-1.6-1-2.4-1c-1.5,0-2.7,1.4-2.7,3.9   c0,2.5,1,3.9,2.7,3.9C778.3,122.4,779.1,122,779.9,121.1z"/>
	<path d="M785.9,122.8c0-1.1,0.8-1.9,1.8-1.9s1.8,0.8,1.8,1.9s-0.8,1.9-1.8,1.9S785.9,123.9,785.9,122.8z"/>
	<path d="M987.9,33.5c-1.3-2.3-2-4.7-2-7.4c0-2.7,0.7-5.2,2-7.4c1.3-2.3,3.1-4,5.4-5.4c2.3-1.3,4.7-2,7.4-2c2.7,0,5.1,0.7,7.4,2   c2.3,1.3,4.1,3.1,5.4,5.4c1.3,2.3,2,4.8,2,7.4c0,2.6-0.7,5.1-2,7.4c-1.3,2.3-3.1,4.1-5.4,5.4c-2.3,1.3-4.7,1.9-7.4,2   c-2.7,0-5.1-0.6-7.4-2C991,37.5,989.2,35.7,987.9,33.5z M993.4,30.4c0,0.3,0.1,0.6,0.4,0.9l1.7,1.7c0.3,0.3,0.5,0.4,0.9,0.4   c0.3,0,0.6-0.1,0.9-0.4l3.5-3.5l3.5,3.5c0.3,0.3,0.5,0.4,0.9,0.4c0.3,0,0.6-0.1,0.9-0.4l1.7-1.7c0.3-0.3,0.4-0.6,0.4-0.9   c0-0.3-0.1-0.6-0.4-0.9l-3.5-3.5l3.5-3.5c0.3-0.3,0.4-0.5,0.4-0.9c0-0.3-0.1-0.6-0.4-0.9l-1.7-1.7c-0.3-0.3-0.6-0.4-0.9-0.4   c-0.3,0-0.6,0.1-0.9,0.4l-3.5,3.5l-3.5-3.5c-0.3-0.3-0.5-0.4-0.9-0.4c-0.3,0-0.6,0.1-0.9,0.4l-1.7,1.7c-0.3,0.3-0.4,0.6-0.4,0.9   c0,0.3,0.1,0.6,0.4,0.9l3.5,3.5l-3.5,3.5C993.5,29.8,993.4,30.1,993.4,30.4z"/>
	<g>
		<path d="M297.2,112.2c-0.6-0.7-1.5-1.2-2.4-1.2c-1.9,0-3.5,1.4-3.6,5.6c0.9-1.1,2.2-1.8,3.3-1.8c2.6,0,4.5,1.5,4.5,4.7    c0,3-2.2,5-4.8,5c-3,0-5.5-2.3-5.5-7.5c0-5.9,2.9-8.4,6-8.4c1.8,0,3.2,0.8,4.1,1.7L297.2,112.2z M296.4,119.6    c0-1.8-0.9-2.7-2.4-2.7c-0.9,0-1.9,0.5-2.7,1.8c0.3,2.7,1.4,3.9,2.9,3.9C295.4,122.5,296.4,121.5,296.4,119.6z"/>
	</g>
</g>
</svg>