<?xml version="1.0" encoding="UTF-8"?>
<svg xmlns="http://www.w3.org/2000/svg" onmouseup="{ if(window.parent.document.onmouseup) window.parent.document.onmouseup(arguments[0]);}" xml:space="preserve" enable-background="new 0 0 100 64.2" viewBox="0 0 100 64.2" height="64.2px" width="100px" y="0px" x="0px" version="1.1" xmlns:xlink="http://www.w3.org/1999/xlink">
<g id="Playbar">
	<linearGradient id="SVGID_1_" gradientUnits="userSpaceOnUse" x1="229.1307" y1="63.4761" x2="229.1307" y2="2.0471">
		<stop offset="0" style="stop-color:#000000"/>
		<stop offset="0.1738" style="stop-color:#1A1A1A"/>
		<stop offset="1" style="stop-color:#333333"/>
	</linearGradient>
	<rect x="-283.8" y="0.7" fill="url(#SVGID_1_)" stroke="#808080" stroke-miterlimit="10" width="1025.8" height="63.3"/>
	<g>
		<g>
			<line fill="none" stroke="#FFFFFF" stroke-width="0.75" stroke-miterlimit="10" x1="0.2" y1="7.2" x2="0.2" y2="56.5"/>
		</g>
		<g>
			<line fill="none" stroke="#CCCCCC" stroke-width="0.75" stroke-miterlimit="10" x1="99.9" y1="7.2" x2="99.9" y2="56.5"/>
		</g>
	</g>
	<path fill="#FFFFFF" d="M22,45.4V18.9c0-1,0.3-1.7,0.9-2c0.6-0.3,1.3-0.2,2.1,0.3L45.8,30V18.9c0-1,0.3-1.7,0.9-2   c0.6-0.3,1.3-0.2,2.1,0.3l21.2,13.1V19.1c0-0.7,0.2-1.3,0.7-1.7c0.5-0.5,1-0.7,1.7-0.7h4.8c0.7,0,1.3,0.2,1.7,0.7   c0.5,0.5,0.7,1,0.7,1.7v26.1c0,0.7-0.2,1.2-0.7,1.7c-0.5,0.5-1,0.7-1.7,0.7h-4.8c-0.7,0-1.3-0.2-1.7-0.7c-0.5-0.5-0.7-1-0.7-1.7V34   L48.7,47.2c-0.8,0.5-1.5,0.6-2.1,0.3c-0.6-0.3-0.9-1-0.9-2V34.3L25,47.2c-0.8,0.5-1.5,0.6-2.1,0.3C22.3,47.1,22,46.4,22,45.4z"/>
</g>
<g id="Information_-_on">
</g>
</svg>