<?xml version="1.0" encoding="UTF-8"?>
<svg xmlns="http://www.w3.org/2000/svg" onmouseup="{ if(window.parent.document.onmouseup) window.parent.document.onmouseup(arguments[0]);}" xml:space="preserve" enable-background="new 0 0 100 64.2" viewBox="0 0 100 64.2" height="64.2px" width="100px" y="0px" x="0px" version="1.1" xmlns:xlink="http://www.w3.org/1999/xlink">
<g id="Playbar">
	<linearGradient id="SVGID_1_" gradientUnits="userSpaceOnUse" x1="-311.411" y1="63.4761" x2="-311.411" y2="2.0471">
		<stop offset="0" style="stop-color:#000000"/>
		<stop offset="0.1738" style="stop-color:#1A1A1A"/>
		<stop offset="1" style="stop-color:#333333"/>
	</linearGradient>
	<rect x="-824.3" y="0.7" fill="url(#SVGID_1_)" stroke="#808080" stroke-miterlimit="10" width="1025.8" height="63.3"/>
	<g>
		<line fill="none" stroke="#FFFFFF" stroke-width="0.75" stroke-miterlimit="10" x1="0" y1="7.2" x2="0" y2="56.5"/>
	</g>
	<g>
		<line fill="none" stroke="#CCCCCC" stroke-width="0.75" stroke-miterlimit="10" x1="99.8" y1="7.4" x2="99.8" y2="56.7"/>
	</g>
	<path fill="#FFFFFF" d="M29,31.8c0-1.1,0.1-2.4,0.3-3.7c1.5,0.1,2.9-0.2,4.2-0.9c1.3-0.7,2.4-1.7,3.2-3c0.7-1.4,1.1-2.8,1-4.3   c-0.1-1.5-0.5-2.9-1.4-4.1c1.9-1.7,4.2-3,6.8-3.9c0.7,1.2,1.7,2.2,2.9,3c1.2,0.8,2.6,1.1,4.1,1.1c1.5,0,2.8-0.4,4.1-1.1   c1.2-0.8,2.2-1.7,2.9-3c2.6,0.9,4.8,2.2,6.8,3.9c-0.6,1.2-0.9,2.5-0.9,3.8c0,1.4,0.3,2.6,1,3.9c0.7,1.2,1.7,2.2,2.9,2.9   c1.2,0.7,2.5,1,3.9,1c0.3,1.5,0.5,2.9,0.5,4.4c0,1-0.1,2.1-0.3,3.4c-1.4,0-2.6,0.4-3.8,1.1c-1.2,0.7-2.1,1.7-2.8,2.9   c-0.8,1.3-1.1,2.7-1.1,4.2c0,1.4,0.4,2.8,1.2,4c-2,1.8-4.2,3.2-6.5,4.2c-0.7-1.3-1.7-2.3-2.9-3s-2.6-1.1-4.1-1.1   c-1.6,0-3,0.4-4.3,1.3c-1.3,0.8-2.3,2-2.9,3.3c-2.5-0.8-4.8-2-6.9-3.7c0.8-1.2,1.3-2.6,1.4-4.1c0.1-1.5-0.3-2.9-1.1-4.3   c-0.8-1.4-1.9-2.4-3.3-3.2c-1.4-0.7-2.9-1-4.4-0.8C29.2,34.7,29,33.3,29,31.8L29,31.8z M44.5,26.2c-1.5,1.5-2.3,3.4-2.3,5.6   c0,2.2,0.8,4.1,2.3,5.6c1.5,1.5,3.4,2.3,5.6,2.3c2.2,0,4.1-0.8,5.6-2.3c1.5-1.5,2.3-3.4,2.3-5.6c0-2.2-0.8-4.1-2.3-5.6   c-1.5-1.5-3.4-2.3-5.6-2.3C47.9,23.9,46,24.6,44.5,26.2z"/>
</g>
<g id="Information_-_on">
</g>
</svg>