<?xml version="1.0" encoding="UTF-8"?>
<svg xmlns="http://www.w3.org/2000/svg" onmouseup="{ if(window.parent.document.onmouseup) window.parent.document.onmouseup(arguments[0]);}" xml:space="preserve" enable-background="new 0 0 191 54" viewBox="0 0 191 54" height="54px" width="191px" y="0px" x="0px" version="1.1" xmlns:xlink="http://www.w3.org/1999/xlink">
<g id="Playbar">
</g>
<g id="Information_-_on">
	<g>
		<g>
			<polygon fill="#FFFFFF" stroke="#808080" stroke-miterlimit="10" points="190.5,0.5 190.5,53.5 165,53.5 153.7,53.4 142.4,53.5      0.5,53.5 0.5,0.5    "/>
		</g>
		<g>
			<path d="M65.7,20.5h1.6v5.3h5.9v-5.3h1.6v12.6h-1.6v-5.9h-5.9v5.9h-1.6V20.5z"/>
			<path d="M77.3,28.4c0-3.1,2.1-4.9,4.2-4.9c2.4,0,3.7,1.7,3.7,4.4c0,0.3,0,0.7-0.1,0.9h-6.3c0.1,2,1.3,3.2,3.1,3.2     c0.9,0,1.6-0.3,2.3-0.7l0.6,1c-0.8,0.5-1.8,1-3.1,1C79.3,33.3,77.3,31.5,77.3,28.4z M83.9,27.7c0-1.9-0.8-2.9-2.3-2.9     c-1.3,0-2.5,1.1-2.7,2.9H83.9z"/>
			<path d="M87.6,31.2V19.4h1.6v11.9c0,0.5,0.2,0.7,0.4,0.7c0.1,0,0.2,0,0.3,0l0.2,1.2c-0.2,0.1-0.5,0.2-0.9,0.2     C88.1,33.3,87.6,32.6,87.6,31.2z"/>
			<path d="M92.5,23.7h1.3l0.1,1.1H94c0.8-0.7,1.9-1.3,3-1.3c2.4,0,3.7,1.9,3.7,4.8c0,3.2-1.9,5-4,5c-0.9,0-1.7-0.4-2.6-1.1l0,1.6     V37h-1.6V23.7z M99,28.3c0-2.1-0.7-3.4-2.5-3.4c-0.8,0-1.6,0.4-2.5,1.3V31c0.8,0.7,1.7,1,2.3,1C97.9,32,99,30.6,99,28.3z"/>
		</g>
		<path d="M25.4,16.2c2.9-2.9,6.3-4.4,10.4-4.4c4.1,0,7.5,1.3,10.4,4.2c2.9,2.8,4.4,6.3,4.5,10.3c0,4.1-1.4,7.5-4.2,10.5    c-2.8,2.9-6.3,4.4-10.3,4.5c-4.1,0-7.5-1.4-10.5-4.2c-2.9-2.8-4.4-6.3-4.4-10.3C21.1,22.6,22.5,19.1,25.4,16.2z M41,24.9    c0.6-0.7,0.8-1.6,0.8-2.5c0-1.7-0.6-2.9-1.7-3.7c-1.1-0.8-2.5-1.2-4.3-1.2c-1.4,0-2.5,0.3-3.3,0.8c-1.5,0.9-2.2,2.5-2.3,4.7v0.1    h3.5V23c0-0.6,0.2-1.1,0.5-1.7c0.3-0.5,0.9-0.8,1.7-0.8c0.9,0,1.4,0.2,1.7,0.6c0.3,0.4,0.5,0.9,0.5,1.4c0,0.4-0.2,0.8-0.5,1.3    c-0.2,0.3-0.4,0.5-0.6,0.6l-0.2,0.1c-0.1,0.1-0.3,0.2-0.5,0.4c-0.2,0.1-0.4,0.3-0.6,0.5c-0.2,0.2-0.4,0.4-0.7,0.5    c-0.2,0.2-0.4,0.4-0.5,0.5c-0.3,0.4-0.5,1.3-0.6,2.5v0.3h3.5v-0.1c0-0.3,0-0.6,0.1-0.9c0.1-0.4,0.4-0.8,0.9-1.2l0.9-0.6    C40.2,25.8,40.8,25.2,41,24.9z M35.7,35.4c0.6,0,1.2-0.2,1.6-0.6c0.4-0.4,0.6-0.9,0.6-1.5c0-0.6-0.1-1.2-0.5-1.6    c-0.4-0.4-0.9-0.6-1.6-0.6h-0.1c-0.6,0-1.1,0.2-1.5,0.6c-0.4,0.4-0.6,0.9-0.7,1.5c0,0.6,0.2,1.2,0.6,1.6    C34.5,35.1,35,35.3,35.7,35.4L35.7,35.4z"/>
	</g>
</g>
</svg>