<?xml version="1.0" encoding="UTF-8"?>
<svg xmlns="http://www.w3.org/2000/svg" onmouseup="{ if(window.parent.document.onmouseup) window.parent.document.onmouseup(arguments[0]);}" xml:space="preserve" enable-background="new 0 0 191 54.2" viewBox="0 0 191 54.2" height="54.2px" width="191px" y="0px" x="0px" version="1.1" xmlns:xlink="http://www.w3.org/1999/xlink">
<g id="Playbar">
</g>
<g id="Information_-_on">
	<g>
		<rect x="63.9" y="19.4" fill="none" width="126.5" height="15.3"/>
		<text transform="matrix(1 0 0 1 63.9307 33.0884)"><tspan x="0" y="0" font-family="'SourceSansPearson-Regular'" font-size="19.2212">In</tspan><tspan x="17.1" y="0" font-family="'SourceSansPearson-Regular'" font-size="19.2212">f</tspan><tspan x="22.5" y="0" font-family="'SourceSansPearson-Regular'" font-size="19.2212">orm</tspan><tspan x="55.5" y="0" font-family="'SourceSansPearson-Regular'" font-size="19.2212">a</tspan><tspan x="65.9" y="0" font-family="'SourceSansPearson-Regular'" font-size="19.2212">tion</tspan></text>
		<path d="M20.9,26.5c0-4.2,1.5-7.7,4.4-10.6c2.9-2.9,6.5-4.4,10.6-4.4c4.2,0,7.7,1.5,10.6,4.4c2.9,2.9,4.4,6.5,4.4,10.6    c0,4.2-1.5,7.7-4.4,10.6c-2.9,2.9-6.5,4.4-10.6,4.4c-4.2,0-7.7-1.5-10.6-4.4C22.4,34.2,20.9,30.7,20.9,26.5z M32.4,25.7l1.1-0.2    c0.5,0,0.8,0.4,0.8,1.1v7.3c0,0.4-0.1,0.7-0.4,0.9c-0.4,0.3-0.9,0.5-1.6,0.6l0.2,1c1.8-0.2,3-0.2,3.5-0.2c0.6,0,1.7,0.1,3.5,0.2    l0.2-1c-0.8-0.2-1.3-0.4-1.6-0.6c-0.2-0.1-0.3-0.2-0.3-0.3c0-0.1-0.1-0.3-0.1-0.6v-7.2c0-1,0.2-1.9,0.4-2.7l-0.6-0.7    c-0.7,0-1.6,0.2-2.8,0.4c-1.2,0.3-2.1,0.6-2.7,0.8L32.4,25.7z M33.2,18.7c0,0.6,0.2,1.1,0.6,1.5c0.4,0.4,1,0.5,1.7,0.5    c0.7,0,1.2-0.2,1.7-0.6c0.4-0.4,0.7-0.9,0.7-1.5c0-0.6-0.2-1.1-0.7-1.5c-0.4-0.4-1-0.5-1.7-0.5c-0.7,0-1.3,0.2-1.7,0.5    C33.4,17.6,33.2,18.1,33.2,18.7z"/>
		<g>
			<polygon stroke="#808080" stroke-miterlimit="10" points="190.5,0.5 190.5,53.5 165,53.5 153.7,53.7 142.4,53.5 0.5,53.5      0.5,0.5    "/>
		</g>
		<g>
			<path fill="#FFFFFF" d="M65.7,20.5h1.6v5.3h5.9v-5.3h1.6v12.6h-1.6v-5.9h-5.9v5.9h-1.6V20.5z"/>
			<path fill="#FFFFFF" d="M77.3,28.4c0-3.1,2.1-4.9,4.2-4.9c2.4,0,3.7,1.7,3.7,4.4c0,0.3,0,0.7-0.1,0.9h-6.3c0.1,2,1.3,3.2,3.1,3.2     c0.9,0,1.6-0.3,2.3-0.7l0.6,1c-0.8,0.5-1.8,1-3.1,1C79.3,33.3,77.3,31.5,77.3,28.4z M83.9,27.7c0-1.9-0.8-2.9-2.3-2.9     c-1.3,0-2.5,1.1-2.7,2.9H83.9z"/>
			<path fill="#FFFFFF" d="M87.6,31.2V19.4h1.6v11.9c0,0.5,0.2,0.7,0.4,0.7c0.1,0,0.2,0,0.3,0l0.2,1.2c-0.2,0.1-0.5,0.2-0.9,0.2     C88.1,33.3,87.6,32.6,87.6,31.2z"/>
			<path fill="#FFFFFF" d="M92.5,23.7h1.3l0.1,1.1H94c0.8-0.7,1.9-1.3,3-1.3c2.4,0,3.7,1.9,3.7,4.8c0,3.2-1.9,5-4,5     c-0.9,0-1.7-0.4-2.6-1.1l0,1.6V37h-1.6V23.7z M99,28.3c0-2.1-0.7-3.4-2.5-3.4c-0.8,0-1.6,0.4-2.5,1.3V31c0.8,0.7,1.7,1,2.3,1     C97.9,32,99,30.6,99,28.3z"/>
		</g>
		<path fill="#FFFFFF" d="M25.4,16.2c2.9-2.9,6.3-4.4,10.4-4.4c4.1,0,7.5,1.3,10.4,4.2c2.9,2.8,4.4,6.3,4.5,10.3    c0,4.1-1.4,7.5-4.2,10.5c-2.8,2.9-6.3,4.4-10.3,4.5c-4.1,0-7.5-1.4-10.5-4.2c-2.9-2.8-4.4-6.3-4.4-10.3    C21.1,22.6,22.5,19.1,25.4,16.2z M41,24.9c0.6-0.7,0.8-1.6,0.8-2.5c0-1.7-0.6-2.9-1.7-3.7c-1.1-0.8-2.5-1.2-4.3-1.2    c-1.4,0-2.5,0.3-3.3,0.8c-1.5,0.9-2.2,2.5-2.3,4.7v0.1h3.5V23c0-0.6,0.2-1.1,0.5-1.7c0.3-0.5,0.9-0.8,1.7-0.8    c0.9,0,1.4,0.2,1.7,0.6c0.3,0.4,0.5,0.9,0.5,1.4c0,0.4-0.2,0.8-0.5,1.3c-0.2,0.3-0.4,0.5-0.6,0.6l-0.2,0.1    c-0.1,0.1-0.3,0.2-0.5,0.4c-0.2,0.1-0.4,0.3-0.6,0.5c-0.2,0.2-0.4,0.4-0.7,0.5c-0.2,0.2-0.4,0.4-0.5,0.5c-0.3,0.4-0.5,1.3-0.6,2.5    v0.3h3.5v-0.1c0-0.3,0-0.6,0.1-0.9c0.1-0.4,0.4-0.8,0.9-1.2l0.9-0.6C40.2,25.8,40.8,25.2,41,24.9z M35.7,35.4    c0.6,0,1.2-0.2,1.6-0.6c0.4-0.4,0.6-0.9,0.6-1.5c0-0.6-0.1-1.2-0.5-1.6c-0.4-0.4-0.9-0.6-1.6-0.6h-0.1c-0.6,0-1.1,0.2-1.5,0.6    c-0.4,0.4-0.6,0.9-0.7,1.5c0,0.6,0.2,1.2,0.6,1.6C34.5,35.1,35,35.3,35.7,35.4L35.7,35.4z"/>
	</g>
</g>
</svg>