<?xml version="1.0" encoding="UTF-8"?>
<svg xmlns="http://www.w3.org/2000/svg" onmouseup="{ if(window.parent.document.onmouseup) window.parent.document.onmouseup(arguments[0]);}" xml:space="preserve" enable-background="new 0 0 191 65.5" viewBox="0 0 191 65.5" height="65.5px" width="191px" y="0px" x="0px" version="1.1" xmlns:xlink="http://www.w3.org/1999/xlink">
<g id="Playbar">
</g>
<g id="Information_-_on">
	<g>
		<g>
			<polygon fill="#FFFFFF" stroke="#808080" stroke-miterlimit="10" points="190.5,0.5 190.5,53.5 165,53.5 153.7,64.8 142.4,53.5      0.5,53.5 0.5,0.5    "/>
		</g>
		<rect x="63.9" y="19.4" fill="none" width="126.5" height="15.3"/>
		<text transform="matrix(1 0 0 1 63.9307 33.0885)"><tspan x="0" y="0" font-family="'SourceSansPearson-Regular'" font-size="19.2212">In</tspan><tspan x="17.1" y="0" font-family="'SourceSansPearson-Regular'" font-size="19.2212">f</tspan><tspan x="22.5" y="0" font-family="'SourceSansPearson-Regular'" font-size="19.2212">orm</tspan><tspan x="55.5" y="0" font-family="'SourceSansPearson-Regular'" font-size="19.2212">a</tspan><tspan x="65.9" y="0" font-family="'SourceSansPearson-Regular'" font-size="19.2212">tion</tspan></text>
		<path d="M20.9,26.5c0-4.2,1.5-7.7,4.4-10.6c2.9-2.9,6.5-4.4,10.6-4.4c4.2,0,7.7,1.5,10.6,4.4c2.9,2.9,4.4,6.5,4.4,10.6    c0,4.2-1.5,7.7-4.4,10.6c-2.9,2.9-6.5,4.4-10.6,4.4c-4.2,0-7.7-1.5-10.6-4.4C22.4,34.2,20.9,30.7,20.9,26.5z M32.4,25.7l1.1-0.2    c0.5,0,0.8,0.4,0.8,1.1v7.3c0,0.4-0.1,0.7-0.4,0.9c-0.4,0.3-0.9,0.5-1.6,0.6l0.2,1c1.8-0.2,3-0.2,3.5-0.2c0.6,0,1.7,0.1,3.5,0.2    l0.2-1c-0.8-0.2-1.3-0.4-1.6-0.6c-0.2-0.1-0.3-0.2-0.3-0.3c0-0.1-0.1-0.3-0.1-0.6v-7.2c0-1,0.2-1.9,0.4-2.7l-0.6-0.7    c-0.7,0-1.6,0.2-2.8,0.4c-1.2,0.3-2.1,0.6-2.7,0.8L32.4,25.7z M33.2,18.7c0,0.6,0.2,1.1,0.6,1.5c0.4,0.4,1,0.5,1.7,0.5    c0.7,0,1.2-0.2,1.7-0.6c0.4-0.4,0.7-0.9,0.7-1.5c0-0.6-0.2-1.1-0.7-1.5c-0.4-0.4-1-0.5-1.7-0.5c-0.7,0-1.3,0.2-1.7,0.5    C33.4,17.6,33.2,18.1,33.2,18.7z"/>
		<g>
			<polygon stroke="#808080" stroke-miterlimit="10" points="190.5,0.5 190.5,53.5 165,53.5 153.7,64.8 142.4,53.5 0.5,53.5      0.5,0.5    "/>
		</g>
		<g>
			<path fill="#FFFFFF" d="M64.8,31.7h1.6v-9.9h-1.6v-1.3h4.8v1.3H68v9.9h1.6v1.4h-4.8V31.7z"/>
			<path fill="#FFFFFF" d="M72.1,23.7h1.3l0.1,1.3h0.1c0.9-0.9,1.8-1.6,3.1-1.6c2,0,2.8,1.3,2.8,3.7v5.9H78v-5.7     c0-1.8-0.5-2.5-1.8-2.5c-1,0-1.6,0.5-2.6,1.4v6.8h-1.6V23.7z"/>
			<path fill="#FFFFFF" d="M86.8,20.7c-0.3-0.2-0.7-0.2-1.1-0.2c-0.9,0-1.3,0.6-1.3,1.8v1.5h2V25h-2v8.1h-1.6V25h-1.3v-1.2l1.3-0.1     v-1.5c0-1.9,0.9-3.1,2.7-3.1c0.6,0,1.1,0.1,1.6,0.3L86.8,20.7z"/>
			<path fill="#FFFFFF" d="M87.3,28.4c0-3.1,2-4.9,4.3-4.9c2.3,0,4.3,1.8,4.3,4.9c0,3.1-2,4.9-4.3,4.9     C89.4,33.3,87.3,31.5,87.3,28.4z M94.4,28.4c0-2.2-1.1-3.6-2.7-3.6c-1.6,0-2.7,1.5-2.7,3.6c0,2.1,1.1,3.6,2.7,3.6     C93.3,32,94.4,30.6,94.4,28.4z"/>
			<path fill="#FFFFFF" d="M98.5,23.7h1.3l0.1,1.7h0.1c0.6-1.2,1.6-1.9,2.7-1.9c0.4,0,0.7,0.1,1,0.2l-0.3,1.4     c-0.3-0.1-0.5-0.2-0.9-0.2c-0.8,0-1.7,0.6-2.4,2.2v6h-1.6V23.7z"/>
			<path fill="#FFFFFF" d="M105.1,23.7h1.3l0.1,1.3h0.1c0.8-0.9,1.8-1.6,2.9-1.6c1.4,0,2.2,0.7,2.6,1.8c1-1.1,1.9-1.8,3.1-1.8     c1.9,0,2.8,1.3,2.8,3.7v5.9h-1.6v-5.7c0-1.8-0.6-2.5-1.7-2.5c-0.7,0-1.5,0.5-2.3,1.4v6.8h-1.6v-5.7c0-1.8-0.6-2.5-1.7-2.5     c-0.7,0-1.5,0.5-2.3,1.4v6.8h-1.6V23.7z"/>
			<path fill="#FFFFFF" d="M120.4,28.4c0-3,1.9-4.9,4.1-4.9c1,0,1.8,0.4,2.7,1.1h0l0.1-0.9h1.3v9.3h-1.3l-0.1-1.1h-0.1     c-0.7,0.7-1.7,1.3-2.8,1.3C121.9,33.3,120.4,31.6,120.4,28.4z M127,30.7v-4.9c-0.8-0.7-1.5-1-2.3-1c-1.5,0-2.7,1.4-2.7,3.6     c0,2.2,0.9,3.6,2.6,3.6C125.5,32,126.2,31.6,127,30.7z"/>
			<path fill="#FFFFFF" d="M131.7,30.2V25h-1.4v-1.2l1.5-0.1l0.2-2.6h1.3v2.6h2.5V25h-2.5v5.2c0,1.2,0.4,1.8,1.4,1.8     c0.3,0,0.7-0.1,1.1-0.3l0.3,1.2c-0.5,0.2-1.2,0.3-1.7,0.3C132.4,33.3,131.7,32.1,131.7,30.2z"/>
			<path fill="#FFFFFF" d="M137.7,20.8c0-0.6,0.5-1,1.1-1s1.1,0.4,1.1,1c0,0.6-0.5,1-1.1,1S137.7,21.4,137.7,20.8z M138,23.7h1.6     v9.3H138V23.7z"/>
			<path fill="#FFFFFF" d="M142,28.4c0-3.1,2-4.9,4.3-4.9s4.3,1.8,4.3,4.9c0,3.1-2,4.9-4.3,4.9S142,31.5,142,28.4z M149,28.4     c0-2.2-1.1-3.6-2.7-3.6c-1.6,0-2.7,1.5-2.7,3.6c0,2.1,1.1,3.6,2.7,3.6C147.9,32,149,30.6,149,28.4z"/>
			<path fill="#FFFFFF" d="M153.1,23.7h1.3l0.1,1.3h0.1c0.9-0.9,1.8-1.6,3.1-1.6c2,0,2.8,1.3,2.8,3.7v5.9H159v-5.7     c0-1.8-0.5-2.5-1.8-2.5c-1,0-1.6,0.5-2.6,1.4v6.8h-1.6V23.7z"/>
		</g>
		<path fill="#FFFFFF" d="M20.9,26.5c0-4.2,1.5-7.7,4.4-10.6c2.9-2.9,6.5-4.4,10.6-4.4c4.2,0,7.7,1.5,10.6,4.4    c2.9,2.9,4.4,6.5,4.4,10.6c0,4.2-1.5,7.7-4.4,10.6c-2.9,2.9-6.5,4.4-10.6,4.4c-4.2,0-7.7-1.5-10.6-4.4    C22.4,34.2,20.9,30.7,20.9,26.5z M32.4,25.7l1.1-0.2c0.5,0,0.8,0.4,0.8,1.1v7.3c0,0.4-0.1,0.7-0.4,0.9c-0.4,0.3-0.9,0.5-1.6,0.6    l0.2,1c1.8-0.2,3-0.2,3.5-0.2c0.6,0,1.7,0.1,3.5,0.2l0.2-1c-0.8-0.2-1.3-0.4-1.6-0.6c-0.2-0.1-0.3-0.2-0.3-0.3    c0-0.1-0.1-0.3-0.1-0.6v-7.2c0-1,0.2-1.9,0.4-2.7l-0.6-0.7c-0.7,0-1.6,0.2-2.8,0.4c-1.2,0.3-2.1,0.6-2.7,0.8L32.4,25.7z     M33.2,18.7c0,0.6,0.2,1.1,0.6,1.5c0.4,0.4,1,0.5,1.7,0.5c0.7,0,1.2-0.2,1.7-0.6c0.4-0.4,0.7-0.9,0.7-1.5c0-0.6-0.2-1.1-0.7-1.5    c-0.4-0.4-1-0.5-1.7-0.5c-0.7,0-1.3,0.2-1.7,0.5C33.4,17.6,33.2,18.1,33.2,18.7z"/>
	</g>
</g>
</svg>