<?xml version="1.0" encoding="UTF-8"?>
<svg xmlns="http://www.w3.org/2000/svg" onmouseup="{ if(window.parent.document.onmouseup) window.parent.document.onmouseup(arguments[0]);}" xml:space="preserve" enable-background="new 0 0 100 64.2" viewBox="0 0 100 64.2" height="64.2px" width="100px" y="0px" x="0px" version="1.1" xmlns:xlink="http://www.w3.org/1999/xlink">
<g id="Playbar">
	<linearGradient id="SVGID_1_" gradientUnits="userSpaceOnUse" x1="329.1723" y1="63.4761" x2="329.1723" y2="2.0471">
		<stop offset="0" style="stop-color:#DCDDDF"/>
		<stop offset="0.1738" style="stop-color:#F2F2F2"/>
		<stop offset="1" style="stop-color:#FFFFFF"/>
	</linearGradient>
	<rect x="-183.7" y="0.7" fill="url(#SVGID_1_)" stroke="#808080" stroke-miterlimit="10" width="1025.8" height="63.3"/>
	<g>
		<g>
			<line fill="none" stroke="#FFFFFF" stroke-width="0.75" stroke-miterlimit="10" x1="0.8" y1="7.2" x2="0.8" y2="56.5"/>
			<line fill="none" stroke="#CCCCCC" stroke-width="0.75" stroke-miterlimit="10" x1="-0.1" y1="7.2" x2="-0.1" y2="56.5"/>
		</g>
		<g>
			<line fill="none" stroke="#FFFFFF" stroke-width="0.75" stroke-miterlimit="10" x1="100.3" y1="7.2" x2="100.3" y2="56.5"/>
			<line fill="none" stroke="#CCCCCC" stroke-width="0.75" stroke-miterlimit="10" x1="99.4" y1="7.2" x2="99.4" y2="56.5"/>
		</g>
	</g>
</g>
<g id="Information_-_on">
	<path stroke="#FFFFFF" stroke-miterlimit="10" d="M34,47.6V15.1c0-0.8,0.3-1.6,0.9-2.1c0.6-0.6,1.3-0.9,2.1-0.9h6   c0.8,0,1.6,0.3,2.1,0.9c0.6,0.6,0.9,1.3,0.9,2.1v32.6c0,0.8-0.3,1.6-0.9,2.2c-0.6,0.6-1.3,0.9-2.1,0.9h-6c-0.8,0-1.6-0.3-2.1-0.9   C34.3,49.2,34,48.5,34,47.6z M56.6,47.6V15.1c0-0.8,0.3-1.6,0.9-2.1c0.6-0.6,1.3-0.9,2.1-0.9h6c0.8,0,1.5,0.3,2.1,0.9   c0.6,0.6,0.9,1.3,0.9,2.1v32.6c0,0.8-0.3,1.6-0.9,2.2c-0.6,0.6-1.3,0.9-2.1,0.9h-6c-0.8,0-1.5-0.3-2.1-0.9   C56.9,49.2,56.6,48.5,56.6,47.6z"/>
</g>
</svg>