<?xml version="1.0" encoding="UTF-8"?>
<svg xmlns="http://www.w3.org/2000/svg" onmouseup="{ if(window.parent.document.onmouseup) window.parent.document.onmouseup(arguments[0]);}" xml:space="preserve" enable-background="new 0 0 84 64.2" viewBox="0 0 84 64.2" height="64.2px" width="84px" y="0px" x="0px" version="1.1" xmlns:xlink="http://www.w3.org/1999/xlink">
<g id="Playbar">
	<linearGradient id="SVGID_1_" gradientUnits="userSpaceOnUse" x1="513.0057" y1="63.4761" x2="513.0057" y2="2.0471">
		<stop offset="0" style="stop-color:#000000"/>
		<stop offset="0.1738" style="stop-color:#1A1A1A"/>
		<stop offset="1" style="stop-color:#333333"/>
	</linearGradient>
	<rect x="0.1" y="0.7" fill="url(#SVGID_1_)" stroke="#808080" stroke-miterlimit="10" width="1025.8" height="63.3"/>
	<g>
		<path fill="#FFFFFF" d="M56.4,20.6c-3.8-3.9-8.3-5.9-13.7-6.1V8.4l-10,9.1l10,9.1v-7c4,0.2,7.4,1.7,10.2,4.6    c2.8,2.9,4.2,6.4,4.2,10.5c0,4.2-1.5,7.7-4.4,10.7c-2.9,3-6.4,4.5-10.6,4.5c-4.1,0-7.6-1.5-10.5-4.5c-2.9-3-4.4-6.5-4.4-10.7    c0-3.3,1-6.3,2.9-9l-3.7-3.5c-2.9,3.7-4.3,7.9-4.3,12.5c0,5.6,1.9,10.4,5.8,14.3c3.9,3.9,8.6,5.9,14.1,5.9c5.5,0,10.2-2,14.1-5.9    c3.9-3.9,5.8-8.7,5.8-14.3C62.1,29.2,60.2,24.5,56.4,20.6z"/>
		<path fill="#FFFFFF" d="M36.9,39.1c-0.4,0.2-0.9,0.4-1.5,0.4c-0.5,0-1-0.1-1.6-0.4c-0.5-0.3-1-0.6-1.4-1l-1.8,2.5    c0.6,0.7,1.3,1.2,2.1,1.6c0.9,0.4,1.9,0.6,3.1,0.6c0.8,0,1.5-0.1,2.2-0.3c0.7-0.2,1.3-0.5,1.8-0.8c0.5-0.4,0.9-0.8,1.2-1.4    c0.3-0.5,0.5-1.2,0.5-1.9c0-0.9-0.3-1.7-0.8-2.3c-0.5-0.6-1.2-1-2-1.3v-0.1c1.6-0.7,2.4-1.8,2.4-3.2c0-1.3-0.5-2.4-1.4-3.1    c-1-0.7-2.3-1.1-3.9-1.1c-0.9,0-1.7,0.2-2.5,0.5c-0.8,0.3-1.5,0.8-2.2,1.4l2,2.4c0.5-0.4,0.9-0.7,1.3-0.9c0.4-0.2,0.8-0.3,1.3-0.3    c1,0,1.5,0.5,1.5,1.4c0,0.3-0.1,0.5-0.2,0.7c-0.1,0.2-0.3,0.4-0.5,0.5c-0.2,0.2-0.6,0.3-1,0.3c-0.4,0.1-0.9,0.1-1.5,0.1v2.8    c0.8,0,1.4,0,1.9,0.1c0.5,0.1,0.8,0.2,1.1,0.3c0.3,0.2,0.4,0.3,0.5,0.6c0.1,0.2,0.1,0.5,0.1,0.8C37.5,38.5,37.3,38.8,36.9,39.1z"/>
		<path fill="#FFFFFF" d="M46.6,42.2c0.7,0.3,1.4,0.5,2.2,0.5c0.8,0,1.5-0.2,2.2-0.5c0.7-0.3,1.2-0.8,1.7-1.5    c0.5-0.7,0.9-1.5,1.1-2.4c0.3-1,0.4-2.1,0.4-3.4c0-1.3-0.1-2.4-0.4-3.3c-0.3-1-0.6-1.8-1.1-2.4c-0.5-0.6-1.1-1.1-1.7-1.4    c-0.7-0.3-1.4-0.5-2.2-0.5c-0.8,0-1.6,0.2-2.2,0.5c-0.7,0.3-1.2,0.8-1.7,1.4c-0.5,0.6-0.9,1.4-1.1,2.4c-0.3,1-0.4,2.1-0.4,3.3    c0,1.3,0.1,2.4,0.4,3.4c0.3,1,0.6,1.8,1.1,2.4C45.3,41.3,45.9,41.8,46.6,42.2z M47.2,32.5c0.1-0.6,0.2-1.1,0.4-1.4    c0.2-0.3,0.3-0.5,0.5-0.6c0.2-0.1,0.4-0.2,0.7-0.2c0.2,0,0.5,0.1,0.7,0.2c0.2,0.1,0.4,0.3,0.5,0.6c0.2,0.3,0.3,0.8,0.4,1.4    c0.1,0.6,0.1,1.4,0.1,2.4c0,1,0,1.8-0.1,2.4c-0.1,0.6-0.2,1.1-0.4,1.4c-0.2,0.3-0.3,0.6-0.5,0.7c-0.2,0.1-0.4,0.2-0.7,0.2    c-0.2,0-0.4-0.1-0.7-0.2c-0.2-0.1-0.4-0.3-0.5-0.7c-0.2-0.3-0.3-0.8-0.4-1.4c-0.1-0.6-0.1-1.4-0.1-2.4    C47.1,33.9,47.1,33.1,47.2,32.5z"/>
	</g>
	<g>
		<g>
			<line fill="none" stroke="#CCCCCC" stroke-width="0.75" stroke-miterlimit="10" x1="83.5" y1="7.2" x2="83.5" y2="56.5"/>
		</g>
	</g>
</g>
<g id="Information_-_on">
</g>
</svg>