<?xml version="1.0" encoding="UTF-8"?>
<svg xmlns="http://www.w3.org/2000/svg" onmouseup="{ if(window.parent.document.onmouseup) window.parent.document.onmouseup(arguments[0]);}" xml:space="preserve" enable-background="new 0 0 100 64.2" viewBox="0 0 100 64.2" height="64.2px" width="100px" y="0px" x="0px" version="1.1" xmlns:xlink="http://www.w3.org/1999/xlink">
<g id="Playbar">
	<linearGradient id="SVGID_1_" gradientUnits="userSpaceOnUse" x1="-211.4943" y1="63.4761" x2="-211.4943" y2="2.0471">
		<stop offset="0" style="stop-color:#DCDDDF"/>
		<stop offset="0.1738" style="stop-color:#F2F2F2"/>
		<stop offset="1" style="stop-color:#FFFFFF"/>
	</linearGradient>
	<rect x="-724.4" y="0.7" fill="url(#SVGID_1_)" stroke="#808080" stroke-miterlimit="10" width="1025.8" height="63.3"/>
	<g>
		<line fill="none" stroke="#FFFFFF" stroke-width="0.75" stroke-miterlimit="10" x1="0.8" y1="7.2" x2="0.8" y2="56.5"/>
		<line fill="none" stroke="#CCCCCC" stroke-width="0.75" stroke-miterlimit="10" x1="-0.1" y1="7.2" x2="-0.1" y2="56.5"/>
	</g>
	<g>
		<line fill="none" stroke="#CCCCCC" stroke-width="0.75" stroke-miterlimit="10" x1="99.9" y1="7.2" x2="99.9" y2="56.5"/>
	</g>
	<g>
		<path d="M56.3,27.4c-2.3,0-4.1-2-4.1-4.5V12.1H39.9c-1.8,0-3.3,1.6-3.3,3.6V48c0,2,1.5,3.6,3.3,3.6h23c1.8,0,3.3-1.6,3.3-3.6V27.4    H56.3z M60.4,44.4H42.3c-0.5,0-0.8-0.4-0.8-0.9c0-0.5,0.4-0.9,0.8-0.9h18.1c0.5,0,0.8,0.4,0.8,0.9C61.2,44,60.9,44.4,60.4,44.4z     M60.4,39H42.3c-0.5,0-0.8-0.4-0.8-0.9c0-0.5,0.4-0.9,0.8-0.9h18.1c0.5,0,0.8,0.4,0.8,0.9C61.2,38.6,60.9,39,60.4,39z M60.4,33.7    H42.3c-0.5,0-0.8-0.4-0.8-0.9c0-0.5,0.4-0.9,0.8-0.9h18.1c0.5,0,0.8,0.4,0.8,0.9C61.2,33.3,60.9,33.7,60.4,33.7z"/>
		<path d="M56.3,25.6l8.4,0L53.8,13.8v9.1C53.8,24.4,54.9,25.6,56.3,25.6z"/>
	</g>
</g>
<g id="Information_-_on">
</g>
</svg>