<?xml version="1.0" encoding="UTF-8"?>
<svg xmlns="http://www.w3.org/2000/svg" onmouseup="{ if(window.parent.document.onmouseup) window.parent.document.onmouseup(arguments[0]);}" xml:space="preserve" enable-background="new 0 0 100 64.2" viewBox="0 0 100 64.2" height="64.2px" width="100px" y="0px" x="0px" version="1.1" xmlns:xlink="http://www.w3.org/1999/xlink">
<g id="Playbar">
	<linearGradient id="SVGID_1_" gradientUnits="userSpaceOnUse" x1="-11.2443" y1="63.4761" x2="-11.2443" y2="2.0471">
		<stop offset="0" style="stop-color:#DCDDDF"/>
		<stop offset="0.1738" style="stop-color:#F2F2F2"/>
		<stop offset="1" style="stop-color:#FFFFFF"/>
	</linearGradient>
	<rect x="-524.1" y="0.7" fill="url(#SVGID_1_)" stroke="#808080" stroke-miterlimit="10" width="1025.8" height="63.3"/>
	<g>
		<line fill="none" stroke="#FFFFFF" stroke-width="0.75" stroke-miterlimit="10" x1="0.6" y1="7.2" x2="0.6" y2="56.5"/>
		<line fill="none" stroke="#CCCCCC" stroke-width="0.75" stroke-miterlimit="10" x1="-0.3" y1="7.2" x2="-0.3" y2="56.5"/>
	</g>
	<g>
		<line fill="none" stroke="#CCCCCC" stroke-width="0.75" stroke-miterlimit="10" x1="100" y1="7.2" x2="100" y2="56.5"/>
	</g>
	<path d="M51.2,14.9v34L40.6,38.3H30.4V25.4h10.2L51.2,14.9z M57.2,42.1l-2.9-2.9c2.1-2.1,3.1-4.6,3.1-7.6c0-2.8-1-5.2-2.9-7.2   l2.7-2.7c2.9,3,4.4,6.5,4.4,10.3C61.6,35.7,60.2,39.1,57.2,42.1z M63.7,47.9l-3.2-3.1c3.5-3.4,5.2-7.7,5.2-13c0-5.1-1.7-9.5-5.2-13   l3-3c2.2,2.2,3.9,4.7,5.1,7.5c1.2,2.8,1.8,5.7,1.8,8.7C70.3,38.2,68.1,43.5,63.7,47.9L63.7,47.9z"/>
</g>
<g id="Information_-_on">
</g>
</svg>